<?xml version="1.0" standalone="no"?>
<!DOCTYPE svg PUBLIC "-//W3C//DTD SVG 20010904//EN"
 "http://www.w3.org/TR/2001/REC-SVG-20010904/DTD/svg10.dtd">
<svg version="1.0" xmlns="http://www.w3.org/2000/svg"
 width="231.000000pt" height="231.000000pt" viewBox="0 0 231.000000 231.000000"
 preserveAspectRatio="xMidYMid meet">
<metadata>
Created by potrace 1.14, written by Peter Selinger 2001-2017
</metadata>
<g transform="translate(0.000000,231.000000) scale(0.100000,-0.100000)"
fill="#000000" stroke="none">
<path d="M0 1155 l0 -1155 1155 0 1155 0 0 1155 0 1155 -1155 0 -1155 0 0
-1155z m1168 882 c2 -11 -3 -17 -17 -17 -23 0 -35 15 -26 31 10 15 39 6 43
-14z m79 7 c9 -23 -13 -40 -32 -24 -12 10 -13 16 -4 26 15 18 28 18 36 -2z
m-169 -6 c19 -19 14 -28 -13 -28 -24 0 -34 18 -18 33 9 10 17 9 31 -5z m252
-8 c0 -13 -7 -20 -20 -20 -13 0 -20 7 -20 20 0 13 7 20 20 20 13 0 20 -7 20
-20z m-326 -16 c7 -18 -21 -31 -36 -16 -15 15 -2 43 16 36 8 -3 17 -12 20 -20z
m412 15 c10 -17 -23 -46 -37 -32 -7 7 -9 19 -6 27 7 18 33 21 43 5z m74 -24
c0 -9 -7 -18 -16 -22 -18 -7 -39 11 -30 26 11 17 46 13 46 -4z m-562 -18 c2
-11 -3 -17 -17 -17 -23 0 -35 15 -26 31 10 15 39 6 43 -14z m632 -18 c0 -25
-33 -22 -38 4 -2 12 3 17 17 17 15 0 21 -6 21 -21z m-702 -12 c2 -11 -3 -17
-17 -17 -23 0 -35 15 -26 31 10 15 39 6 43 -14z m777 -7 c7 -12 -12 -40 -27
-40 -16 0 -21 32 -7 41 18 12 26 11 34 -1z m-850 -30 c0 -22 -39 -19 -43 3 -3
15 1 18 20 15 12 -2 23 -10 23 -18z m920 -20 c0 -22 -39 -19 -43 3 -3 15 1 18
20 15 12 -2 23 -10 23 -18z m-985 -20 c0 -13 -7 -20 -18 -20 -24 0 -32 8 -25
26 8 22 43 17 43 -6z m1047 -34 c-9 -23 -37 -20 -37 3 0 21 20 33 34 20 5 -4
6 -15 3 -23z m-1109 -13 c5 -17 -26 -29 -40 -15 -6 6 -7 15 -3 22 9 14 37 9
43 -7z m1170 -30 c-2 -10 -10 -18 -18 -18 -8 0 -16 8 -18 18 -2 12 3 17 18 17
15 0 20 -5 18 -17z m-1235 -17 c7 -18 -1 -26 -25 -26 -18 0 -25 20 -11 33 11
12 31 8 36 -7z m1294 -32 c8 -21 -13 -42 -28 -27 -13 13 -5 43 11 43 6 0 13
-7 17 -16z m-1350 -30 c9 -23 -13 -40 -32 -24 -12 10 -13 16 -4 26 15 18 28
18 36 -2z m1401 -43 c-2 -9 -11 -17 -21 -19 -21 -4 -35 27 -17 38 19 12 42 0
38 -19z m-1449 -10 c14 -9 9 -41 -7 -41 -15 0 -34 28 -27 40 8 12 16 13 34 1z
m1489 -48 c5 -17 -26 -29 -40 -15 -6 6 -7 15 -3 22 9 14 37 9 43 -7z m-1521
-29 c10 -26 -14 -41 -35 -21 -15 16 -15 19 -2 27 21 14 30 12 37 -6z m1558
-44 c0 -22 -39 -19 -43 3 -3 15 1 18 20 15 12 -2 23 -10 23 -18z m-1595 -30
c0 -13 -7 -20 -20 -20 -13 0 -20 7 -20 20 0 13 7 20 20 20 13 0 20 -7 20 -20z
m1626 -49 c-10 -16 -43 -13 -50 4 -8 21 25 37 43 20 7 -7 10 -18 7 -24z
m-1650 -12 c9 -15 -11 -33 -30 -26 -9 4 -13 13 -10 22 7 17 30 20 40 4z m1672
-46 c5 -17 -26 -29 -40 -15 -6 6 -7 15 -3 22 9 14 37 9 43 -7z m-1690 -36 c4
-21 -25 -34 -40 -19 -8 8 -8 16 2 27 16 19 34 15 38 -8z m451 -14 c23 -27 24
-30 17 -162 -6 -117 -10 -138 -27 -157 -19 -20 -19 -24 -5 -59 18 -43 20 -55
6 -55 -5 0 -18 20 -29 45 -16 36 -25 45 -44 45 -14 0 -35 9 -48 19 -23 18 -24
26 -27 165 l-3 145 26 27 c23 23 32 26 68 21 29 -4 49 -14 66 -34z m111 -153
c0 -162 -2 -190 -15 -190 -13 0 -15 28 -15 190 0 162 2 190 15 190 13 0 15
-28 15 -190z m208 118 c11 -40 30 -113 41 -163 10 -49 22 -102 26 -117 6 -22
4 -28 -8 -28 -10 0 -18 14 -22 40 l-7 40 -68 0 -68 0 -7 -40 c-4 -25 -12 -40
-21 -40 -8 0 -14 2 -14 5 0 13 81 358 86 366 3 5 13 9 23 9 14 0 23 -17 39
-72z m237 -94 l70 -167 3 167 c1 99 6 166 12 166 13 0 13 -377 0 -385 -5 -3
-16 5 -24 17 -18 29 -126 283 -126 297 0 6 -5 11 -11 11 -7 0 -10 -23 -8 -62
5 -121 -1 -258 -11 -258 -6 0 -10 70 -10 190 0 175 1 190 18 190 13 0 34 -41
87 -166z m355 151 c0 -8 -36 -87 -80 -175 -44 -88 -80 -162 -80 -165 0 -3 36
-5 80 -5 47 0 80 -4 80 -10 0 -6 -38 -10 -95 -10 -78 0 -95 3 -95 15 0 8 36
87 80 175 l80 160 -62 1 c-35 1 -67 1 -72 0 -17 -4 -37 9 -31 19 3 6 48 10
101 10 77 0 94 -3 94 -15z m345 -55 c0 -22 -39 -19 -43 3 -3 15 1 18 20 15 12
-2 23 -10 23 -18z m-1719 -21 c3 -6 0 -17 -7 -25 -18 -17 -44 -2 -36 20 7 18
33 21 43 5z m1730 -40 c3 -6 0 -17 -7 -25 -18 -17 -44 -2 -36 20 7 18 33 21
43 5z m-1748 -47 c2 -14 -2 -22 -12 -22 -19 0 -29 17 -22 36 8 22 30 12 34
-14z m1747 -37 c0 -28 -29 -25 -33 3 -3 19 0 23 15 20 10 -2 18 -12 18 -23z
m-1748 -31 c8 -21 -13 -42 -28 -27 -13 13 -5 43 11 43 6 0 13 -7 17 -16z
m1751 -41 c5 -17 -26 -29 -40 -15 -6 6 -7 15 -3 22 9 14 37 9 43 -7z m-1733
-43 c0 -8 -10 -16 -22 -18 -18 -3 -23 2 -23 18 0 16 5 21 23 18 12 -2 22 -10
22 -18z m1720 -35 c0 -28 -29 -25 -33 3 -3 19 0 23 15 20 10 -2 18 -12 18 -23z
m-1715 -33 c0 -24 -8 -32 -26 -25 -22 8 -17 43 6 43 13 0 20 -7 20 -18z m1699
-25 c8 -10 7 -17 -1 -25 -18 -18 -38 -14 -38 6 0 32 20 42 39 19z m-1679 -46
c0 -21 -26 -36 -36 -20 -9 15 3 39 21 39 8 0 15 -9 15 -19z m1660 -41 c0 -13
-7 -20 -20 -20 -19 0 -27 20 -13 33 13 14 33 6 33 -13z m-1634 -25 c3 -8 3
-19 0 -24 -10 -16 -36 -1 -36 20 0 22 28 26 36 4z m1604 -56 c0 -23 -28 -26
-37 -3 -6 16 15 37 29 28 4 -3 8 -14 8 -25z m-1575 -19 c4 -6 1 -17 -5 -26
-14 -16 -40 -2 -40 22 0 16 36 19 45 4z m1544 -34 c9 -10 8 -16 -4 -26 -19
-16 -41 1 -32 24 8 20 21 20 36 2z m-1501 -45 c-2 -9 -11 -17 -21 -19 -21 -4
-35 27 -17 38 19 12 42 0 38 -19z m1462 -31 c0 -13 -7 -20 -20 -20 -13 0 -20
7 -20 20 0 13 7 20 20 20 13 0 20 -7 20 -20z m-1431 -19 c12 -21 5 -31 -21
-31 -11 0 -18 7 -18 18 0 35 23 43 39 13z m1386 -41 c0 -8 -10 -16 -22 -18
-22 -3 -32 16 -16 32 12 11 38 2 38 -14z m-1331 -25 c6 -16 -24 -29 -37 -16
-14 14 -1 42 17 35 8 -3 17 -12 20 -19z m1284 -38 c2 -11 -3 -17 -17 -17 -23
0 -35 15 -26 31 10 15 39 6 43 -14z m-1241 -13 c7 -18 -17 -38 -31 -24 -11 11
-1 40 14 40 6 0 13 -7 17 -16z m1181 -37 c4 -20 -25 -34 -39 -20 -14 14 1 45
20 41 9 -2 17 -11 19 -21z m-1110 -20 c4 -21 -25 -34 -40 -19 -8 8 -8 16 2 27
16 19 34 15 38 -8z m1042 -27 c0 -23 -22 -27 -39 -7 -13 16 -5 27 21 27 11 0
18 -7 18 -20z m-975 -10 c7 -11 -12 -40 -25 -40 -11 0 -21 30 -14 41 7 12 31
11 39 -1z m902 -26 c8 -21 -13 -42 -28 -27 -13 13 -5 43 11 43 6 0 13 -7 17
-16z m-830 -20 c8 -22 -18 -37 -36 -20 -7 8 -10 19 -7 25 10 16 36 13 43 -5z
m763 -24 c0 -13 -7 -20 -20 -20 -13 0 -20 7 -20 20 0 13 7 20 20 20 13 0 20
-7 20 -20z m-692 -13 c4 -21 -27 -35 -38 -17 -12 19 0 42 19 38 9 -2 17 -11
19 -21z m619 -13 c3 -8 1 -20 -6 -27 -14 -14 -47 15 -37 32 10 16 36 13 43 -5z
m-547 -13 c0 -11 -5 -23 -11 -27 -15 -9 -33 12 -26 30 9 23 37 20 37 -3z m480
-17 c0 -19 -28 -30 -42 -16 -8 8 -8 15 1 26 14 17 41 10 41 -10z m-413 5 c14
-14 6 -39 -12 -39 -18 0 -28 17 -21 35 6 18 18 19 33 4z m333 -25 c0 -16 -36
-19 -45 -4 -4 6 -1 17 5 26 14 16 40 2 40 -22z m-244 15 c10 -17 -23 -46 -37
-32 -7 7 -9 19 -6 27 7 18 33 21 43 5z m162 -11 c4 -19 -27 -33 -41 -19 -7 7
-6 16 3 26 15 18 34 15 38 -7z m-78 -13 c0 -9 -7 -18 -16 -22 -18 -7 -39 11
-30 26 11 17 46 13 46 -4z"/>
<path d="M707 1352 c-14 -15 -17 -40 -17 -133 0 -127 10 -158 54 -174 25 -8
31 -6 52 18 23 26 24 36 24 152 0 99 -3 127 -16 139 -21 22 -77 20 -97 -2z"/>
<path d="M1090 1309 c-7 -30 -18 -82 -24 -116 l-13 -63 58 0 57 0 -14 58 c-7
31 -19 77 -24 101 -18 76 -26 80 -40 20z"/>
</g>
</svg>
